<svg width="90" height="90" viewBox="0 0 90 90" fill="none" xmlns="http://www.w3.org/2000/svg">
<circle cx="45" cy="45" r="43" stroke="white" stroke-width="4"/>
<path d="M48 20C48 18.3431 46.6569 17 45 17C43.3431 17 42 18.3431 42 20H48ZM42.8787 72.235C44.0503 73.4065 45.9497 73.4065 47.1213 72.235L66.2132 53.1431C67.3848 51.9715 67.3848 50.072 66.2132 48.9004C65.0416 47.7289 63.1421 47.7289 61.9706 48.9004L45 65.871L28.0294 48.9004C26.8579 47.7289 24.9584 47.7289 23.7868 48.9004C22.6152 50.072 22.6152 51.9715 23.7868 53.1431L42.8787 72.235ZM45 20H42V70.1136H45H48V20H45Z" fill="white"/>
</svg>
